# xmcd
#
# Track frame offsets:
#	150
#	11548
#	20222
#	31389
#	42534
#	53672
#	66784
#	79112
#	93576
#	103720
#	115095
#	127926
#	140257
#	152238
#	164606
#	176329
#	185314
#	197346
#	207995
#	218689
#	229775
#	239108
#	251296
#	261602
#	274399
#	284730
#
# Disc length: 3911 seconds
#
# Revision: 1
# Processed by: cddbd v1.4PL0 Copyright (c) Steve Scherf et al.
# Submitted via: audiograbber 1.80.04
#
DISCID=800f451a
DTITLE=Osborne Brothers - Bluegrass 1956-68 vol 4
DYEAR=1900
DGENRE=
TTITLE0=Lonesome Feelin'
TTITLE1=World Of Unwanted
TTITLE2=Hard Times
TTITLE3=I'M Leavin'
TTITLE4=The Kind Of Woman I Got
TTITLE5=One Kiss Away From Loneliness
TTITLE6=Let'S Say Goodbye Like We Said Hello
TTITLE7=Someone Before Me
TTITLE8=Walking The Floor Over You
TTITLE9=Roll Muddy River
TTITLE10=My Favorite Memory
TTITLE11=Gal You Got A Job To Do
TTITLE12=Ruby Are You Mad-
TTITLE13=My Favorite Memory
TTITLE14=Rocky Top
TTITLE15=When You Wind Down
TTITLE16=Foggy Montain Breakdwon
TTITLE17=Foggy Mountain Breakdown (Reprise)
TTITLE18=The Sisters
TTITLE19=A-Model
TTITLE20=Lonesome Road Blues
TTITLE21=Jessie James
TTITLE22=Maiden'S Prayer
TTITLE23=John Hardy
TTITLE24=Little Willie
TTITLE25=Hand Me Down My Walkin' Cane
EXTD=
EXTT0=
EXTT1=
EXTT2=
EXTT3=
EXTT4=
EXTT5=
EXTT6=
EXTT7=
EXTT8=
EXTT9=
EXTT10=
EXTT11=
EXTT12=
EXTT13=
EXTT14=
EXTT15=
EXTT16=
EXTT17=
EXTT18=
EXTT19=
EXTT20=
EXTT21=
EXTT22=
EXTT23=
EXTT24=
EXTT25=
PLAYORDER=
